<?xml version="1.0" encoding="UTF-8"?> <svg xmlns="http://www.w3.org/2000/svg" data-v-fde0c5aa="" viewBox="0 0 300 300" class="iconAboveSlogan"><!----><defs data-v-fde0c5aa=""><!----></defs><rect data-v-fde0c5aa="" fill="transparent" x="0" y="0" width="300px" height="300px" class="logo-background-square"></rect><defs data-v-fde0c5aa=""><!----></defs><g data-v-fde0c5aa="" id="f1ef2de4-2973-4f7c-8928-0f8033835ace" fill="#000000" transform="matrix(2.3520897217893753,0,0,2.3520897217893753,18.94155958313614,148.34550987600494)"><path d="M8.19 13.75L6.66 13.75L5.96 11.47L2.67 11.47L1.99 13.75L0.45 13.75L3.65 3.95L4.96 3.95L8.19 13.75ZM4.06 6.92L3.08 10.16L5.56 10.16L4.56 6.92L4.56 6.92Q4.41 6.41 4.31 5.89L4.31 5.89L4.31 5.89Q4.21 6.41 4.06 6.92L4.06 6.92ZM13.31 6.43L13.31 6.43L13.31 6.43Q15.96 6.43 15.96 9.51L15.96 9.51L15.96 13.75L14.56 13.75L14.56 9.60L14.56 9.60Q14.56 7.74 12.99 7.74L12.99 7.74L12.99 7.74Q11.33 7.74 11.33 9.58L11.33 9.58L11.33 13.75L9.93 13.75L9.93 6.59L11.23 6.59L11.23 7.46L11.23 7.46Q11.49 7.00 12.05 6.71L12.05 6.71L12.05 6.71Q12.61 6.43 13.31 6.43ZM22.28 5.19L22.28 5.19L22.28 5.19Q22.04 5.43 21.67 5.43L21.67 5.43L21.67 5.43Q21.31 5.43 21.06 5.18L21.06 5.18L21.06 5.18Q20.82 4.93 20.82 4.58L20.82 4.58L20.82 4.58Q20.82 4.23 21.06 3.98L21.06 3.98L21.06 3.98Q21.31 3.72 21.67 3.72L21.67 3.72L21.67 3.72Q22.04 3.72 22.28 3.97L22.28 3.97L22.28 3.97Q22.53 4.21 22.53 4.58L22.53 4.58L22.53 4.58Q22.53 4.94 22.28 5.19ZM22.37 6.59L22.37 12.50L24.35 12.50L24.35 13.75L19.00 13.75L19.00 12.50L20.97 12.50L20.97 7.83L19.00 7.83L19.00 6.59L22.37 6.59ZM32.09 6.43L32.09 6.43L32.09 6.43Q32.98 6.43 33.41 7.03L33.41 7.03L33.41 7.03Q33.84 7.63 33.84 9.02L33.84 9.02L33.84 13.75L32.52 13.75L32.52 9.38L32.52 9.38Q32.52 8.51 32.37 8.13L32.37 8.13L32.37 8.13Q32.21 7.76 31.78 7.76L31.78 7.76L31.78 7.76Q31.33 7.76 31.10 8.20L31.10 8.20L31.10 8.20Q30.87 8.65 30.87 9.42L30.87 9.42L30.87 13.75L29.55 13.75L29.55 9.28L29.55 9.28Q29.55 7.76 28.81 7.76L28.81 7.76L28.81 7.76Q28.36 7.76 28.11 8.21L28.11 8.21L28.11 8.21Q27.85 8.67 27.85 9.42L27.85 9.42L27.85 13.75L26.53 13.75L26.53 6.59L27.76 6.59L27.76 7.53L27.76 7.53Q28.17 6.43 29.16 6.43L29.16 6.43L29.16 6.43Q29.67 6.43 30.02 6.74L30.02 6.74L30.02 6.74Q30.37 7.06 30.51 7.49L30.51 7.49L30.51 7.49Q31.09 6.43 32.09 6.43ZM38.30 13.92L38.30 13.92L38.30 13.92Q37.14 13.92 36.41 13.29L36.41 13.29L36.41 13.29Q35.69 12.67 35.69 11.52L35.69 11.52L35.69 11.52Q35.69 10.36 36.51 9.76L36.51 9.76L36.51 9.76Q37.32 9.16 38.49 9.16L38.49 9.16L38.49 9.16Q39.55 9.16 40.35 9.58L40.35 9.58L40.35 9.09L40.35 9.09Q40.35 7.64 38.89 7.64L38.89 7.64L38.89 7.64Q37.79 7.64 36.61 8.39L36.61 8.39L36.19 7.24L36.19 7.24Q37.46 6.43 39.02 6.43L39.02 6.43L39.02 6.43Q41.71 6.43 41.71 9.04L41.71 9.04L41.71 13.75L40.35 13.75L40.35 13.13L40.35 13.13Q39.54 13.92 38.30 13.92ZM38.53 12.68L38.53 12.68L38.53 12.68Q39.56 12.68 40.35 11.84L40.35 11.84L40.35 10.77L40.35 10.77Q39.61 10.35 38.70 10.35L38.70 10.35L38.70 10.35Q37.98 10.35 37.51 10.65L37.51 10.65L37.51 10.65Q37.03 10.95 37.03 11.52L37.03 11.52L37.03 11.52Q37.03 12.05 37.43 12.37L37.43 12.37L37.43 12.37Q37.83 12.68 38.53 12.68ZM48.13 3.64L48.13 12.50L50.18 12.50L50.18 13.75L44.67 13.75L44.67 12.50L46.73 12.50L46.73 4.87L45.04 4.87L44.39 3.64L48.13 3.64ZM67.91 6.82L67.91 6.82L67.91 6.82Q67.91 7.77 67.40 8.53L67.40 8.53L67.40 8.53Q66.88 9.30 65.86 9.59L65.86 9.59L67.89 13.75L66.29 13.75L64.33 9.73L63.01 9.73L63.01 13.75L61.57 13.75L61.57 3.95L64.76 3.95L64.76 3.95Q66.43 3.95 67.17 4.76L67.17 4.76L67.17 4.76Q67.91 5.57 67.91 6.82ZM64.79 5.28L63.01 5.28L63.01 8.39L64.79 8.39L64.79 8.39Q65.67 8.39 66.07 7.95L66.07 7.95L66.07 7.95Q66.47 7.50 66.47 6.85L66.47 6.85L66.47 6.85Q66.47 6.22 66.09 5.75L66.09 5.75L66.09 5.75Q65.70 5.28 64.79 5.28L64.79 5.28ZM76.50 9.84L76.50 9.84L76.50 9.84Q76.50 10.37 76.45 10.72L76.45 10.72L71.53 10.72L71.53 10.72Q71.68 11.62 72.18 12.14L72.18 12.14L72.18 12.14Q72.67 12.66 73.47 12.66L73.47 12.66L73.47 12.66Q74.41 12.66 75.10 12.01L75.10 12.01L75.92 12.91L75.92 12.91Q74.91 13.92 73.46 13.92L73.46 13.92L73.46 13.92Q71.90 13.92 71.01 12.87L71.01 12.87L71.01 12.87Q70.11 11.83 70.11 10.16L70.11 10.16L70.11 10.16Q70.11 8.41 71.02 7.42L71.02 7.42L71.02 7.42Q71.92 6.43 73.46 6.43L73.46 6.43L73.46 6.43Q74.79 6.43 75.64 7.29L75.64 7.29L75.64 7.29Q76.50 8.16 76.50 9.84ZM71.50 9.51L71.50 9.51L75.11 9.51L75.11 9.51Q75.07 8.55 74.59 8.11L74.59 8.11L74.59 8.11Q74.12 7.66 73.46 7.66L73.46 7.66L73.46 7.66Q72.59 7.66 72.10 8.14L72.10 8.14L72.10 8.14Q71.61 8.62 71.50 9.51ZM81.93 13.92L81.93 13.92L81.93 13.92Q81.07 13.92 80.34 13.57L80.34 13.57L80.34 13.57Q79.60 13.23 79.14 12.64L79.14 12.64L80.08 11.82L80.08 11.82Q80.92 12.71 82.03 12.71L82.03 12.71L82.03 12.71Q82.59 12.71 82.94 12.50L82.94 12.50L82.94 12.50Q83.30 12.28 83.30 11.87L83.30 11.87L83.30 11.87Q83.30 11.30 81.72 10.65L81.72 10.65L81.72 10.65Q81.69 10.64 81.68 10.63L81.68 10.63L81.68 10.63Q81.66 10.63 81.63 10.61L81.63 10.61L81.63 10.61Q81.61 10.60 81.58 10.59L81.58 10.59L81.58 10.59Q81.56 10.58 81.54 10.57L81.54 10.57L81.54 10.57Q80.93 10.32 80.61 10.16L80.61 10.16L80.61 10.16Q80.29 10.00 79.93 9.73L79.93 9.73L79.93 9.73Q79.56 9.46 79.40 9.13L79.40 9.13L79.40 9.13Q79.24 8.79 79.24 8.34L79.24 8.34L79.24 8.34Q79.24 7.46 79.99 6.94L79.99 6.94L79.99 6.94Q80.74 6.43 81.89 6.43L81.89 6.43L81.89 6.43Q83.48 6.43 84.46 7.55L84.46 7.55L83.54 8.32L83.54 8.32Q82.77 7.63 81.83 7.63L81.83 7.63L81.83 7.63Q81.26 7.63 80.91 7.83L80.91 7.83L80.91 7.83Q80.56 8.02 80.56 8.36L80.56 8.36L80.56 8.36Q80.56 8.85 82.10 9.45L82.10 9.45L82.10 9.45Q82.15 9.48 82.18 9.49L82.18 9.49L82.18 9.49Q82.68 9.69 82.91 9.79L82.91 9.79L82.91 9.79Q83.13 9.88 83.53 10.11L83.53 10.11L83.53 10.11Q83.93 10.33 84.12 10.54L84.12 10.54L84.12 10.54Q84.31 10.75 84.46 11.10L84.46 11.10L84.46 11.10Q84.62 11.44 84.62 11.84L84.62 11.84L84.62 11.84Q84.62 12.81 83.89 13.36L83.89 13.36L83.89 13.36Q83.16 13.92 81.93 13.92ZM90.71 13.92L90.71 13.92L90.71 13.92Q89.25 13.92 88.40 12.93L88.40 12.93L88.40 12.93Q87.54 11.94 87.54 10.18L87.54 10.18L87.54 10.18Q87.54 8.43 88.41 7.43L88.41 7.43L88.41 7.43Q89.28 6.43 90.76 6.43L90.76 6.43L90.76 6.43Q92.88 6.43 93.52 8.22L93.52 8.22L92.20 8.68L92.20 8.68Q91.83 7.74 90.76 7.74L90.76 7.74L90.76 7.74Q89.89 7.74 89.44 8.39L89.44 8.39L89.44 8.39Q88.98 9.04 88.98 10.18L88.98 10.18L88.98 10.18Q88.98 11.33 89.43 11.96L89.43 11.96L89.43 11.96Q89.88 12.60 90.72 12.60L90.72 12.60L90.72 12.60Q91.91 12.60 92.26 11.54L92.26 11.54L93.58 11.96L93.58 11.96Q92.96 13.92 90.71 13.92ZM98.84 13.92L98.84 13.92L98.84 13.92Q96.15 13.92 96.15 10.78L96.15 10.78L96.15 6.59L97.57 6.59L97.57 10.68L97.57 10.68Q97.57 11.68 97.99 12.13L97.99 12.13L97.99 12.13Q98.42 12.59 99.12 12.59L99.12 12.59L99.12 12.59Q100.79 12.59 100.79 10.71L100.79 10.71L100.79 6.59L102.20 6.59L102.20 13.75L100.79 13.75L100.79 13.05L100.79 13.05Q100.11 13.92 98.84 13.92ZM110.99 9.84L110.99 9.84L110.99 9.84Q110.99 10.37 110.95 10.72L110.95 10.72L106.02 10.72L106.02 10.72Q106.18 11.62 106.67 12.14L106.67 12.14L106.67 12.14Q107.17 12.66 107.97 12.66L107.97 12.66L107.97 12.66Q108.91 12.66 109.59 12.01L109.59 12.01L110.42 12.91L110.42 12.91Q109.41 13.92 107.95 13.92L107.95 13.92L107.95 13.92Q106.40 13.92 105.50 12.87L105.50 12.87L105.50 12.87Q104.61 11.83 104.61 10.16L104.61 10.16L104.61 10.16Q104.61 8.41 105.51 7.42L105.51 7.42L105.51 7.42Q106.41 6.43 107.95 6.43L107.95 6.43L107.95 6.43Q109.28 6.43 110.14 7.29L110.14 7.29L110.14 7.29Q110.99 8.16 110.99 9.84ZM105.99 9.51L105.99 9.51L109.61 9.51L109.61 9.51Q109.56 8.55 109.09 8.11L109.09 8.11L109.09 8.11Q108.61 7.66 107.95 7.66L107.95 7.66L107.95 7.66Q107.09 7.66 106.60 8.14L106.60 8.14L106.60 8.14Q106.11 8.62 105.99 9.51Z"></path></g><defs data-v-fde0c5aa=""><linearGradient data-v-fde0c5aa="" gradientTransform="rotate(25)" id="fd49a60c-1746-4df2-bb40-3e8d7e89888d" x1="0%" y1="0%" x2="100%" y2="0%"><stop data-v-fde0c5aa="" offset="0%" stop-color="#87544E" stop-opacity="1"></stop><stop data-v-fde0c5aa="" offset="100%" stop-color="#87544E" stop-opacity="1"></stop></linearGradient></defs><g data-v-fde0c5aa="" id="27131167-6afa-4ff3-b7dd-84cbcd37e113" stroke="none" fill="url(#fd49a60c-1746-4df2-bb40-3e8d7e89888d)" transform="matrix(1.097440551199489,0,0,1.097440551199489,111.67638264416256,72.95094335073613)"><g data-name="Layer 2"><path d="M12 32.6a8 8 0 0 0 4.63 6.63A2.44 2.44 0 0 1 18 41.48V49a5.26 5.26 0 0 1-.44 2.1l-.89 2a8.75 8.75 0 0 0-.68 3v3.66a.34.34 0 0 0 .34.34h.13a2.59 2.59 0 0 0 2.3-1.43l.15-.3a5.61 5.61 0 0 1 3.48-3 4 4 0 0 0 2.46-1.93A2.8 2.8 0 0 1 27.34 52h10.3a3.92 3.92 0 0 1 3.51 2.17l2.29 4.58A2.26 2.26 0 0 0 45.49 60a.65.65 0 0 0 .63-.6l1.65-19.83A3.89 3.89 0 0 1 51.65 36h2.86a2.47 2.47 0 0 0 2.21-1.31 10.41 10.41 0 0 0 1.11-5.59 1.2 1.2 0 0 0-1.2-1.1h-1.69a1.15 1.15 0 0 1-1.11-.85l-.25-.92a4.25 4.25 0 0 0-2.81-2.94l-1.77-.5a7.15 7.15 0 0 0-5.47.47 7.15 7.15 0 0 0-2.52 2.18l-1.21 1.68A9.91 9.91 0 0 0 38 32.9v1a2.07 2.07 0 0 0 1.66 2.1A2 2 0 0 0 42 34v-1a1 1 0 0 1 2 0v1.33A3.67 3.67 0 0 1 40.33 38h-.58a3.67 3.67 0 0 1-2.31-.81 8 8 0 0 0-6.62-1.77l-.67.14a20.44 20.44 0 0 1-4.22.44h-5.57a4.4 4.4 0 0 1-3.78-2 3.73 3.73 0 0 1 .92-5c2.2-1.85 4.66-.88 5.42 1a1.83 1.83 0 0 0 1.67 1.2h.32a1.88 1.88 0 0 0 1.8-2.48A7.18 7.18 0 0 0 20 24a8 8 0 0 0-8 8.6z"></path><path d="M29.22 54h-1.64a1.61 1.61 0 0 0-1.09.42 1.09 1.09 0 0 0-.06 1.58l3.34 3.61a1.33 1.33 0 0 0 1 .43A1.25 1.25 0 0 0 32 58.8v-.7a5 5 0 0 0-1.45-3.5 1.88 1.88 0 0 0-1.33-.6zM52.57 42.09l-1.5-.42a1.24 1.24 0 0 0-1.57 1.09l-.41 4.87a.69.69 0 0 0 1.06.65l.87-.55a1.2 1.2 0 0 1 1.63.34l.89 1.31a1.53 1.53 0 0 0 1.26.67 1.19 1.19 0 0 0 1.2-1.19v-1.93a5.38 5.38 0 0 0-1.1-3.26 4.43 4.43 0 0 0-2.33-1.58z"></path></g></g><defs data-v-fde0c5aa=""><!----></defs><g data-v-fde0c5aa="" id="79231019-5fe2-44a1-bbc2-07afa3dadc44" fill="#000000" transform="matrix(0.8264112326308898,0,0,0.8264112326308898,50.82238522140311,188.5164595751933)"><path d="M2.03 13.78L2.86 13.78L2.86 9.42L6.78 9.42L6.78 8.74L2.86 8.74L2.86 5.24L7.49 5.24L7.49 4.54L2.03 4.54ZM19.99 4.76C20.44 4.76 20.82 4.41 20.82 3.95C20.82 3.44 20.44 3.11 19.99 3.11C19.54 3.11 19.17 3.44 19.17 3.95C19.17 4.41 19.54 4.76 19.99 4.76ZM17.01 13.78L23.31 13.78L23.31 13.09L20.55 13.09L20.55 6.64L17.01 6.64L17.01 7.32L19.75 7.32L19.75 13.09L17.01 13.09ZM32.21 13.78L33.03 13.78L33.03 8.71C33.94 7.67 34.55 7.18 35.45 7.18C36.71 7.18 37.23 7.92 37.23 9.44L37.23 13.78L38.04 13.78L38.04 9.32C38.04 7.42 37.28 6.47 35.64 6.47C34.58 6.47 33.78 7.10 33.03 7.98L32.97 7.98L32.89 6.64L32.21 6.64ZM50.08 13.96C50.96 13.96 51.81 13.38 52.39 12.74L52.43 12.74L52.51 13.78L53.19 13.78L53.19 3.57L52.39 3.57L52.39 6.03L52.42 7.46C51.73 6.83 51.09 6.47 50.25 6.47C48.61 6.47 47.11 7.92 47.11 10.22C47.11 12.61 48.29 13.96 50.08 13.96ZM50.20 13.26C48.79 13.26 47.95 12.05 47.95 10.22C47.95 8.48 49.01 7.17 50.36 7.17C51.02 7.17 51.67 7.45 52.39 8.16L52.39 12.00C51.69 12.82 50.95 13.26 50.20 13.26ZM78.78 16.81C80.23 16.81 81.06 15.68 81.55 14.46L84.62 6.64L83.83 6.64L82.18 10.99C81.94 11.61 81.68 12.35 81.41 13.02L81.35 13.02L80.47 10.99L78.61 6.64L77.78 6.64L81.02 13.87L80.84 14.35C80.39 15.51 79.79 16.11 78.78 16.11C78.55 16.11 78.32 16.07 78.13 16.02L77.94 16.67C78.16 16.76 78.48 16.81 78.78 16.81ZM96.60 13.96C98.38 13.96 99.89 12.59 99.89 10.22C99.89 7.83 98.38 6.47 96.60 6.47C94.82 6.47 93.31 7.83 93.31 10.22C93.31 12.59 94.82 13.96 96.60 13.96ZM96.60 13.27C95.17 13.27 94.15 12.04 94.15 10.22C94.15 8.40 95.17 7.15 96.60 7.15C98.03 7.15 99.05 8.40 99.05 10.22C99.05 12.04 98.03 13.27 96.60 13.27ZM111.37 13.96C112.43 13.96 113.26 13.31 113.97 12.43L114.03 12.43L114.10 13.78L114.77 13.78L114.77 6.64L113.96 6.64L113.96 11.70C113.09 12.75 112.45 13.26 111.57 13.26C110.29 13.26 109.79 12.52 109.79 10.98L109.79 6.64L108.96 6.64L108.96 11.09C108.96 13.01 109.73 13.96 111.37 13.96ZM125.40 13.78L126.21 13.78L126.21 9.39C127.11 7.81 128.10 7.22 129.18 7.22C129.72 7.22 129.96 7.28 130.45 7.49L130.66 6.76C130.24 6.52 129.78 6.47 129.32 6.47C128.00 6.47 126.92 7.25 126.20 8.40L126.15 8.40L126.08 6.64L125.40 6.64ZM157.54 13.78L158.33 13.78L158.33 7.32L161.36 7.32L161.36 6.64L158.33 6.64L158.33 6.23C158.33 4.94 158.86 4.09 160.20 4.09C160.82 4.09 161.22 4.14 161.84 4.47L162.05 3.84C161.39 3.51 160.78 3.40 160.15 3.40C158.38 3.40 157.54 4.48 157.54 6.27L157.54 6.64L155.55 6.72L155.55 7.32L157.54 7.32ZM171.60 13.78L172.41 13.78L172.41 9.39C173.31 7.81 174.30 7.22 175.38 7.22C175.92 7.22 176.16 7.28 176.65 7.49L176.86 6.76C176.44 6.52 175.98 6.47 175.52 6.47C174.20 6.47 173.12 7.25 172.40 8.40L172.35 8.40L172.28 6.64L171.60 6.64ZM189.39 4.76C189.84 4.76 190.22 4.41 190.22 3.95C190.22 3.44 189.84 3.11 189.39 3.11C188.94 3.11 188.57 3.44 188.57 3.95C188.57 4.41 188.94 4.76 189.39 4.76ZM186.41 13.78L192.71 13.78L192.71 13.09L189.95 13.09L189.95 6.64L186.41 6.64L186.41 7.32L189.15 7.32L189.15 13.09L186.41 13.09ZM204.82 13.96C205.98 13.96 206.77 13.54 207.40 13.12L207.09 12.53C206.44 12.98 205.77 13.26 204.90 13.26C203.25 13.26 202.10 12.07 202.09 10.36L207.65 10.36C207.68 10.18 207.68 9.98 207.68 9.79C207.68 7.74 206.51 6.47 204.64 6.47C202.90 6.47 201.24 7.91 201.24 10.22C201.24 12.56 202.86 13.96 204.82 13.96ZM202.08 9.73C202.26 8.12 203.41 7.13 204.64 7.13C206.02 7.13 206.91 8.04 206.91 9.73ZM217.01 13.78L217.83 13.78L217.83 8.71C218.74 7.67 219.35 7.18 220.25 7.18C221.51 7.18 222.03 7.92 222.03 9.44L222.03 13.78L222.84 13.78L222.84 9.32C222.84 7.42 222.08 6.47 220.44 6.47C219.38 6.47 218.58 7.10 217.83 7.98L217.77 7.98L217.69 6.64L217.01 6.64ZM234.88 13.96C235.76 13.96 236.61 13.38 237.19 12.74L237.23 12.74L237.31 13.78L237.99 13.78L237.99 3.57L237.19 3.57L237.19 6.03L237.22 7.46C236.53 6.83 235.89 6.47 235.05 6.47C233.41 6.47 231.91 7.92 231.91 10.22C231.91 12.61 233.09 13.96 234.88 13.96ZM235.00 13.26C233.59 13.26 232.75 12.05 232.75 10.22C232.75 8.48 233.81 7.17 235.16 7.17C235.82 7.17 236.47 7.45 237.19 8.16L237.19 12.00C236.49 12.82 235.75 13.26 235.00 13.26Z"></path></g></svg> 